<?xml version="1.0" standalone="no"?><!DOCTYPE svg PUBLIC "-//W3C//DTD SVG 1.1//EN" "http://www.w3.org/Graphics/SVG/1.1/DTD/svg11.dtd"><svg t="1694054517729" class="icon" viewBox="0 0 1024 1024" version="1.1" xmlns="http://www.w3.org/2000/svg" p-id="1944" xmlns:xlink="http://www.w3.org/1999/xlink" width="200" height="200"><path d="M705.4592 974.646303c33.171394-46.281697 45.180121-109.800727 37.376-190.929455-10.146909-105.611636-79.437576-194.094545-222.766545-316.50909-9.991758-7.13697-17.330424-13.544727-23.288243-20.092122-19.595636-21.53503-23.505455-39.718788-20.697212-73.184969l1.582545-17.532122 0.201697-3.661575c0.03103-0.574061 0.046545-1.132606 0.046546-1.706667l0.06206-6.423273 0.124122-2.62206c0.108606-1.427394 0.279273-3.10303 0.558545-5.399273l3.428849-25.088c6.733576-47.941818 6.733576-81.547636-4.732122-121.902545-8.098909-28.516848-16.771879-43.752727-32.224969-58.399031l-2.792728-2.59103c-3.335758-2.994424-15.763394-13.436121-17.128727-14.615273-7.385212-6.376727-13.79297-12.396606-20.681697-19.626666l-3.165091-3.413334c-6.516364-7.19903-12.225939-14.708364-18.059636-23.458909l-3.521939-5.399273c-2.606545-4.096-13.79297-22.605576-16.849455-27.306666C344.235442 6.252606 324.577745-4.670061 291.065018 1.846303a15.515152 15.515152 0 0 0-3.61503 1.179152c-4.57697 2.141091-8.533333 4.344242-11.962182 6.671515-14.056727 9.572848-18.261333 18.788848-19.549091 35.560727l-0.217212 3.227151c-0.837818 15.453091-2.885818 23.986424-11.574303 36.693334-28.454788 4.809697-51.572364 21.690182-68.685576 49.664l-2.389333 4.06497c-5.554424 9.75903-12.784485 17.221818-24.901818 26.530909l-13.498182 9.914181C105.612412 196.561455 93.293382 213.286788 93.091685 244.130909c-0.372364 63.565576 67.475394 114.408727 161.202424 119.389091l1.365333 63.565576c-52.006788 86.528-51.774061 182.768485 0.093091 286.875151V872.727273c-48.453818 2.172121-76.908606 26.965333-80.213333 72.533333-3.568485 49.493333 6.097455 78.584242 36.088242 78.584242h494.421334c119.528727 3.723636 188.152242-60.338424 201.076363-187.174787 4.856242-61.486545-3.909818-95.418182-29.556363-137.991758l-14.27394-22.915879c-23.04-37.484606-34.33503-69.104485-38.787878-123.035151 0.062061-37.888 15.003152-65.892848 40.525575-84.96097 16.461576-12.288 37.422545-19.952485 48.314182-20.867879l2.048-0.093091a15.515152 15.515152 0 1 0 0-31.030303c-16.958061 0-46.11103 10.084848-68.933818 27.136-33.140364 24.762182-52.922182 61.843394-52.922182 111.088485 4.716606 57.949091 16.833939 93.649455 40.323879 133.05794l14.522182 23.381333c24.513939 39.470545 32.28703 67.134061 27.834182 123.42303-11.279515 110.716121-66.404848 162.164364-169.689213 158.968243h-15.980606l14.894546-18.183758zM211.611927 992.814545c-3.444364 0-7.509333-12.225939-5.12-45.335272 2.327273-32.147394 21.317818-45.878303 63.984485-43.690667a15.515152 15.515152 0 0 0 16.306424-15.499636V710.283636a15.515152 15.515152 0 0 0-1.675636-7.028363c-49.648485-97.698909-49.648485-184.940606-0.651636-263.757576a15.515152 15.515152 0 0 0 2.327272-8.533333l-1.784242-82.866425a15.515152 15.515152 0 0 0-15.515152-15.189333c-86.186667 0-145.640727-41.735758-145.361454-88.591515 0.108606-16.787394 5.647515-25.972364 22.714182-39.299879l7.261091-5.430303 8.719515-6.361212c16.151273-11.915636 26.65503-21.876364 34.986666-35.219394l2.234182-3.739151c13.901576-24.420848 31.650909-37.003636 54.256485-39.144728a15.515152 15.515152 0 0 0 10.938182-6.128485c15.065212-20.061091 19.657697-33.931636 21.209212-54.613333l0.527515-8.300606c0.527515-6.454303 1.520485-7.695515 5.973334-10.72097 1.598061-1.086061 3.568485-2.234182 5.942303-3.413333 17.37697-3.009939 25.305212 1.117091 36.305454 17.221818l1.768727 2.637576c2.684121 4.096 13.746424 22.388364 16.647758 26.965333a239.941818 239.941818 0 0 0 24.731151 33.000728l3.723637 4.002909c6.11297 6.423273 11.900121 11.993212 18.106182 17.532121l6.609454 5.740606 12.443152 10.581333 2.373818 2.063515c12.737939 11.465697 18.881939 21.674667 25.910303 46.390303 9.479758 33.357576 10.007273 61.750303 4.825212 101.903516l-4.421818 32.380121-0.667152 5.973333-0.217212 2.916849-0.155151 10.162424-0.279273 4.421818-0.977455 10.658909c-4.297697 44.218182 0.512 71.059394 28.206546 101.515636a166.167273 166.167273 0 0 0 27.213576 23.676122C637.3632 608.193939 702.837139 691.789576 711.944533 786.680242c7.13697 74.286545-3.475394 130.513455-31.107878 169.099637l-22.543516 27.461818a15.437576 15.437576 0 0 0-3.351272 7.555879l-0.155152 2.016969H211.627442z" fill="#d4237a" p-id="1945"></path></svg>